<?xml version="1.0" standalone="no"?><!DOCTYPE svg PUBLIC "-//W3C//DTD SVG 1.1//EN" "http://www.w3.org/Graphics/SVG/1.1/DTD/svg11.dtd"><svg t="1647317226002" class="icon" viewBox="0 0 1024 1024" version="1.1" xmlns="http://www.w3.org/2000/svg" p-id="6007" xmlns:xlink="http://www.w3.org/1999/xlink" width="32" height="32"><defs><style type="text/css"></style></defs><path d="M899.002182 605.090909A78.568727 78.568727 0 0 1 977.454545 683.52v215.482182a78.568727 78.568727 0 0 1-78.452363 78.429091H148.270545A78.568727 78.568727 0 0 1 69.818182 899.025455V683.52A78.568727 78.568727 0 0 1 148.270545 605.090909H186.181818V174.545455C186.181818 116.805818 233.169455 69.818182 290.909091 69.818182h465.454545C814.103273 69.818182 861.090909 116.805818 861.090909 174.545455V605.090909h37.911273zM907.636364 899.002182V683.52a8.610909 8.610909 0 0 0-8.634182-8.634182H710.050909l-35.700364 87.808A60.136727 60.136727 0 0 1 614.865455 814.545455h-182.458182a60.136727 60.136727 0 0 1-59.485091-51.828364L337.221818 674.909091H148.270545a8.610909 8.610909 0 0 0-8.634181 8.610909v215.482182a8.610909 8.610909 0 0 0 8.634181 8.610909h750.731637a8.610909 8.610909 0 0 0 8.634182-8.610909zM256 174.522182V605.090909h104.727273c14.196364 0 26.996364 8.610909 32.349091 21.806546l46.545454 114.501818c0.442182 1.070545 0.837818 2.210909 1.163637 3.351272h165.701818c0.325818-1.163636 0.721455-2.280727 1.163636-3.351272l46.545455-114.501818A34.909091 34.909091 0 0 1 686.545455 605.090909H791.272727V174.545455c0-19.246545-15.662545-34.909091-34.909091-34.909091h-465.454545c-19.246545 0-34.909091 15.662545-34.909091 34.909091zM384 325.818182a34.909091 34.909091 0 0 1 0-69.818182h279.272727a34.909091 34.909091 0 0 1 0 69.818182h-279.272727z m209.454545 162.909091h-209.454545a34.909091 34.909091 0 0 1 0-69.818182h209.454545a34.909091 34.909091 0 0 1 0 69.818182z" p-id="6008"></path></svg>