<?xml version="1.0" standalone="no"?><!DOCTYPE svg PUBLIC "-//W3C//DTD SVG 1.1//EN" "http://www.w3.org/Graphics/SVG/1.1/DTD/svg11.dtd"><svg t="1647316865022" class="icon" viewBox="0 0 1027 1024" version="1.1" xmlns="http://www.w3.org/2000/svg" p-id="3883" xmlns:xlink="http://www.w3.org/1999/xlink" width="32.09375" height="32"><defs><style type="text/css"></style></defs><path d="M512 682.666667c-93.866667 0-170.666667-76.8-170.666667-170.666667s76.8-170.666667 170.666667-170.666667 170.666667 76.8 170.666667 170.666667S605.866667 682.666667 512 682.666667zM512 426.666667c-46.933333 0-85.333333 38.4-85.333333 85.333333s38.4 85.333333 85.333333 85.333333 85.333333-38.4 85.333333-85.333333S558.933333 426.666667 512 426.666667z" p-id="3884"></path><path d="M512 853.333333c-320 0-499.2-307.2-507.733333-320-8.533333-12.8-8.533333-29.866667 0-42.666667C12.8 477.866667 192 170.666667 512 170.666667s499.2 307.2 507.733333 320c8.533333 12.8 8.533333 29.866667 0 42.666667C1011.2 546.133333 832 853.333333 512 853.333333zM93.866667 512c42.666667 64 192 256 418.133333 256 226.133333 0 375.466667-192 418.133333-256-42.666667-64-192-256-418.133333-256C285.866667 256 136.533333 448 93.866667 512z" p-id="3885"></path></svg>