<?xml version="1.0" standalone="no"?><!DOCTYPE svg PUBLIC "-//W3C//DTD SVG 1.1//EN" "http://www.w3.org/Graphics/SVG/1.1/DTD/svg11.dtd"><svg t="1647769482905" class="icon" viewBox="0 0 1024 1024" version="1.1" xmlns="http://www.w3.org/2000/svg" p-id="6075" xmlns:xlink="http://www.w3.org/1999/xlink" width="32" height="32"><defs><style type="text/css"></style></defs><path d="M512 64C264.58 64 64 264.58 64 512s200.58 448 448 448 448-200.58 448-448S759.42 64 512 64z m0 832c-212.08 0-384-171.92-384-384s171.92-384 384-384 384 171.92 384 384-171.92 384-384 384z" p-id="6076"></path><path d="M512 776m-32 0a32 32 0 1 0 64 0 32 32 0 1 0-64 0Z" p-id="6077"></path><path d="M704 408a191.6 191.6 0 0 0-192-192c-106 0-192 86-192 192a32 32 0 0 0 64 0 128 128 0 1 1 128 128 32 32 0 0 0-32 32v112a32 32 0 0 0 64 0v-82.67c90.81-15.24 160-94.2 160-189.33z" p-id="6078"></path></svg>