<?xml version="1.0" standalone="no"?><!DOCTYPE svg PUBLIC "-//W3C//DTD SVG 1.1//EN" "http://www.w3.org/Graphics/SVG/1.1/DTD/svg11.dtd"><svg t="1647225026563" class="icon" viewBox="0 0 1024 1024" version="1.1" xmlns="http://www.w3.org/2000/svg" p-id="2471" width="32" height="32" xmlns:xlink="http://www.w3.org/1999/xlink"><defs><style type="text/css"></style></defs><path d="M510.7 896.2c-15.3 0-28.7-11.3-31.4-26.6-0.7-4-0.6-7.9 0.1-11.7 1.7-43.3 0.6-444.5-0.6-710.7-0.1-17.5 14-31.7 31.5-31.8h0.1c17.4 0 31.6 14.1 31.7 31.5 0 0 0.8 179.3 1.3 358.7 0.2 89.7 0.3 179.4 0.2 246.8-0.3 141-0.3 141-30.2 143.7-0.9 0.1-1.8 0.1-2.7 0.1z" p-id="2472"></path><path d="M330.2 538.2h-65.5c-141-0.3-141-0.3-143.7-30.2-1.5-16.4 10.3-31.3 26.5-34.1 4-0.7 8-0.6 11.7 0.1 43.3 1.8 444.4 0.6 710.7-0.6h0.1c17.4 0 31.6 14.1 31.7 31.5 0.1 17.5-14 31.7-31.5 31.8 0 0-179.3 0.8-358.7 1.3-63 0.1-126 0.2-181.3 0.2zM614.8 250c-8.1 0-16.2-3.1-22.4-9.3L512 160.4l-80.4 80.4c-12.4 12.4-32.4 12.4-44.8 0-12.4-12.4-12.4-32.4 0-44.8L489.6 93.2c12.4-12.4 32.4-12.4 44.8 0L637.2 196c12.4 12.4 12.4 32.4 0 44.8-6.2 6.1-14.3 9.2-22.4 9.2zM512 920.5c-8.1 0-16.2-3.1-22.4-9.3L386.8 808.4c-12.4-12.4-12.4-32.4 0-44.8 12.4-12.4 32.4-12.4 44.8 0L512 844l80.4-80.4c12.4-12.4 32.4-12.4 44.8 0 12.4 12.4 12.4 32.4 0 44.8L534.4 911.2c-6.2 6.2-14.3 9.3-22.4 9.3z" p-id="2473"></path><path d="M795.8 636.6c-8.1 0-16.2-3.1-22.4-9.3-12.4-12.4-12.4-32.4 0-44.8l80.4-80.4-80.4-80.4c-12.4-12.4-12.4-32.4 0-44.8 12.4-12.4 32.4-12.4 44.8 0L921 479.8c12.4 12.4 12.4 32.4 0 44.8L818.2 627.4c-6.2 6.1-14.3 9.2-22.4 9.2zM228.2 636.6c-8.1 0-16.2-3.1-22.4-9.3L103 524.6c-12.4-12.4-12.4-32.4 0-44.8L205.8 377c12.4-12.4 32.4-12.4 44.8 0 12.4 12.4 12.4 32.4 0 44.8l-80.4 80.4 80.4 80.4c12.4 12.4 12.4 32.4 0 44.8-6.2 6.1-14.3 9.2-22.4 9.2z" p-id="2474"></path></svg>