<?xml version="1.0" standalone="no"?><!DOCTYPE svg PUBLIC "-//W3C//DTD SVG 1.1//EN" "http://www.w3.org/Graphics/SVG/1.1/DTD/svg11.dtd"><svg t="1647933818763" class="icon" viewBox="0 0 1024 1024" version="1.1" xmlns="http://www.w3.org/2000/svg" p-id="13601" xmlns:xlink="http://www.w3.org/1999/xlink" width="32" height="32"><defs><style type="text/css"></style></defs><path d="M512 73.142857A438.857143 438.857143 0 1 1 73.142857 512 438.857143 438.857143 0 0 1 512 73.142857m0-73.142857a512 512 0 1 0 512 512A512 512 0 0 0 512 0z" p-id="13602"></path><path d="M405.577143 372.845714L646.582857 512l-241.005714 139.154286V372.845714M397.165714 292.571429a64.731429 64.731429 0 0 0-64.731428 64.731428v308.662857a64.365714 64.365714 0 0 0 96.914285 55.954286l266.605715-153.965714a64.731429 64.731429 0 0 0 0-111.908572l-266.605715-153.965714a64.182857 64.182857 0 0 0-32.182857-9.508571z" p-id="13603"></path></svg>