<?xml version="1.0" standalone="no"?><!DOCTYPE svg PUBLIC "-//W3C//DTD SVG 1.1//EN" "http://www.w3.org/Graphics/SVG/1.1/DTD/svg11.dtd"><svg t="1647517149640" class="icon" viewBox="0 0 1024 1024" version="1.1" xmlns="http://www.w3.org/2000/svg" p-id="14255" xmlns:xlink="http://www.w3.org/1999/xlink" width="32" height="32"><defs><style type="text/css"></style></defs><path d="M943.1 389.9a7.9 7.9 0 0 0-7.7-5.9h-64.1a4 4 0 0 0-3.8 5.3 375.6 375.6 0 1 1-209.2-223.8 366 366 0 0 1 39.2 19.4l-50.1 44.5a8.7 8.7 0 0 0 3.2 14.9l200.6 62a8.7 8.7 0 0 0 11.2-9.9L824.5 89.9a8.8 8.8 0 0 0-14.5-5l-56.2 49.9A445.7 445.7 0 0 0 512 64C265.3 64 65.6 262.3 64 509s195.9 447.3 441.2 450.9c251.1 3.8 454.4-196 454.8-447.2a444.2 444.2 0 0 0-16.9-122.8zM512 352a160 160 0 1 0 160 160 160 160 0 0 0-160-160z m0 248a88 88 0 1 1 88-88 88.1 88.1 0 0 1-88 88z" p-id="14256"></path></svg>